<?xml version="1.0" standalone="no"?>
<!DOCTYPE svg PUBLIC "-//W3C//DTD SVG 20010904//EN"
 "http://www.w3.org/TR/2001/REC-SVG-20010904/DTD/svg10.dtd">
<svg version="1.0" xmlns="http://www.w3.org/2000/svg"
 width="192.000000pt" height="192.000000pt" viewBox="0 0 192.000000 192.000000"
 preserveAspectRatio="xMidYMid meet">
<metadata>
Created by potrace 1.11, written by Peter Selinger 2001-2013
</metadata>
<g transform="translate(0.000000,192.000000) scale(0.100000,-0.100000)"
fill="#000000" stroke="none">
<path d="M800 1776 c-269 -58 -476 -220 -594 -466 -20 -41 -36 -80 -36 -87 0
-6 24 -35 52 -63 l53 -52 -50 5 c-27 2 -56 6 -64 8 -20 5 -28 -36 -30 -147 -4
-310 153 -583 424 -735 145 -81 337 -120 493 -99 89 11 248 59 290 86 l24 15
-45 29 c-54 34 -139 112 -377 346 -210 206 -258 235 -430 257 -23 3 -22 5 15
22 28 14 63 19 120 20 127 0 159 -20 402 -256 183 -178 329 -302 400 -340 25
-13 28 -11 107 72 227 239 291 556 175 872 -12 31 -25 57 -29 57 -20 0 -252
-110 -296 -141 -70 -47 -181 -161 -253 -259 -35 -47 -66 -87 -68 -90 -17 -16
16 71 67 175 70 146 138 236 222 300 61 46 209 125 234 125 32 0 19 25 -48 96
-113 119 -237 195 -384 234 -101 28 -282 35 -374 16z m-475 -505 c25 -36 30
-52 30 -102 -1 -32 -6 -64 -13 -71 -18 -18 -65 93 -70 166 -5 70 7 72 53 7z
m578 -41 c64 -20 198 -100 227 -135 14 -17 13 -18 -10 -11 -199 63 -349 76
-431 38 -57 -27 -67 -36 -116 -102 -54 -73 -118 -131 -138 -124 -9 4 -24 22
-34 42 l-18 35 -86 -2 c-89 -2 -147 15 -147 43 0 34 101 34 166 1 27 -14 51
-25 53 -25 6 0 -31 55 -57 83 -38 40 -9 33 39 -10 41 -37 88 -117 90 -150 0
-10 27 35 59 101 32 65 74 134 92 154 75 79 184 101 311 62z m-397 -455 c36
-99 38 -105 26 -105 -8 0 -92 177 -92 193 0 5 8 7 17 5 11 -2 28 -33 49 -93z"/>
</g>
</svg>
