<?xml version="1.0" encoding="UTF-8" standalone="no"?><!DOCTYPE svg PUBLIC "-//W3C//DTD SVG 1.1//EN" "http://www.w3.org/Graphics/SVG/1.1/DTD/svg11.dtd"><svg width="100%" height="100%" viewBox="0 0 373 373" version="1.1" xmlns="http://www.w3.org/2000/svg" xmlns:xlink="http://www.w3.org/1999/xlink" xml:space="preserve" xmlns:serif="http://www.serif.com/" style="fill-rule:evenodd;clip-rule:evenodd;stroke-linejoin:round;stroke-miterlimit:1.41421;"><path id="path3014" d="M198.439,365.989c13.4,-0.953 25.192,-2.94 36.973,-6.231c0.94,-0.263 2.113,-0.586 2.606,-0.718c4.415,-1.184 15.363,-5.133 20.596,-7.43c4.664,-2.048 13.128,-6.192 14.796,-7.245c0.712,-0.449 0.668,-0.603 -0.352,-1.219c-1.287,-0.779 -5.108,-3.364 -7.27,-4.919c-1.992,-1.433 -3.092,-2.262 -7.147,-5.387c-0.459,-0.353 -2.214,-1.782 -3.901,-3.176c-1.686,-1.393 -3.362,-2.77 -3.724,-3.06c-0.362,-0.29 -1.474,-1.254 -2.471,-2.142c-0.997,-0.888 -2.949,-2.623 -4.338,-3.854c-1.388,-1.231 -3.291,-2.942 -4.228,-3.803c-0.937,-0.86 -2.22,-2.035 -2.851,-2.611c-0.63,-0.575 -2.612,-2.447 -4.404,-4.158c-1.791,-1.711 -4.536,-4.318 -6.1,-5.794c-7.388,-6.971 -14.142,-13.63 -35.351,-34.854c-33.218,-33.242 -39.05,-38.775 -46.338,-43.961c-0.627,-0.446 -1.507,-1.075 -1.955,-1.398c-3.702,-2.668 -11.468,-6.889 -16.776,-9.117c-3.651,-1.533 -3.94,-1.647 -5.819,-2.296c-9.125,-3.148 -17.807,-5.017 -27.896,-6.002c-2.479,-0.242 -6.911,-0.576 -7.696,-0.579c-0.481,-0.002 -0.47,-0.296 0.019,-0.482c0.211,-0.081 1.073,-0.471 1.913,-0.868c3.646,-1.722 9.022,-3.731 13.13,-4.906c4.336,-1.241 7.892,-1.988 12.179,-2.561c2.37,-0.316 3.519,-0.371 7.981,-0.378c5.48,-0.01 6.757,0.086 11.238,0.838c7.818,1.314 15.299,4.083 23.125,8.558c2.484,1.421 5.995,3.719 7.876,5.156c0.657,0.501 1.354,1.02 1.547,1.151c1.572,1.068 6.309,5.139 9.474,8.144c6.392,6.068 12.721,12.221 22.962,22.324c11.756,11.598 17.332,17.087 20.349,20.033c1.694,1.655 3.417,3.339 3.827,3.742c0.973,0.955 7.929,7.618 10.033,9.609c0.899,0.851 2.989,2.835 4.644,4.407c4.04,3.84 6.125,5.749 13.422,12.292c11.426,10.245 24.368,20.37 34.704,27.151c5.695,3.736 13.457,8.27 14.157,8.27c0.427,0 5.074,-3.799 9.867,-8.069c8.722,-7.769 16.694,-16.419 23.741,-25.76c13.518,-17.917 23.316,-37.545 29.498,-59.091c4.801,-16.732 7.081,-34.161 6.808,-52.039c-0.215,-14.081 -1.739,-26.348 -4.936,-39.741c-1.271,-5.329 -3.616,-13.218 -5.289,-17.8c-0.268,-0.736 -0.712,-1.961 -0.986,-2.722c-1.736,-4.825 -5.98,-14.589 -6.474,-14.895c-0.148,-0.091 -0.723,0.131 -6.204,2.395c-1.299,0.536 -3.168,1.303 -4.153,1.703c-0.986,0.401 -2.598,1.079 -3.583,1.507c-0.986,0.427 -2.855,1.235 -4.154,1.793c-6.614,2.844 -11.344,4.973 -19.463,8.762c-6.153,2.871 -16.138,7.915 -19.627,9.914c-3.473,1.989 -7.527,4.602 -10.668,6.873c-0.806,0.584 -1.697,1.219 -1.98,1.414c-0.283,0.194 -1.594,1.189 -2.913,2.211c-8.901,6.893 -18.116,15.756 -28.611,27.515c-1.317,1.476 -2.6,2.948 -2.85,3.271c-0.251,0.324 -1.556,1.899 -2.901,3.502c-6.78,8.082 -16.789,21.283 -23.628,31.162c-0.889,1.284 -1.804,2.6 -2.035,2.924c-1.299,1.826 -2.284,3.254 -3.518,5.099c-1.761,2.634 -2.224,3.046 -1.615,1.435c0.119,-0.314 0.511,-1.377 0.871,-2.362c2.501,-6.841 8.679,-22.365 10.274,-25.816c0.186,-0.403 0.886,-1.979 1.556,-3.502c2.585,-5.877 4.17,-9.244 7.211,-15.31c2.518,-5.023 5.524,-10.619 7.219,-13.437c0.242,-0.403 1.079,-1.796 1.859,-3.095c1.804,-3.005 1.544,-2.584 3.422,-5.53c2.967,-4.655 6.258,-9.331 9.214,-13.093c0.763,-0.971 1.738,-2.217 2.166,-2.769c3.261,-4.202 9.348,-10.71 13.88,-14.84c5.302,-4.832 12.601,-10.393 18.975,-14.459c5.238,-3.34 7.071,-4.432 12.297,-7.327c1.676,-0.928 7.022,-3.667 8.47,-4.339c6.408,-2.975 7.06,-3.261 12.208,-5.347c3.602,-1.461 11.145,-4.228 13.072,-4.796c0.747,-0.22 0.789,-0.401 0.266,-1.153c-0.255,-0.366 -0.64,-0.93 -0.856,-1.252c-0.406,-0.607 -3.121,-4.243 -4.451,-5.962c-6.782,-8.765 -16.001,-18.464 -24.311,-25.58c-3.56,-3.048 -7.902,-6.553 -10.343,-8.348c-9.55,-7.024 -17.655,-11.964 -28.096,-17.125c-4.126,-2.04 -9.007,-4.233 -12.134,-5.453c-0.851,-0.332 -1.899,-0.749 -2.33,-0.927c-7.543,-3.117 -20.725,-6.915 -30.436,-8.77c-3.849,-0.735 -9.896,-1.714 -11.78,-1.906c-0.358,-0.037 -1.678,-0.175 -2.932,-0.308c-7.947,-0.84 -14.164,-1.117 -22.314,-0.995c-6.496,0.098 -8.764,0.208 -14.007,0.683c-12.139,1.098 -23.674,3.337 -35.67,6.924c-1.254,0.375 -2.5,0.742 -2.769,0.814c-0.268,0.073 -1.441,0.471 -2.606,0.886c-1.164,0.414 -2.557,0.903 -3.094,1.087c-1.517,0.517 -6.142,2.301 -8.307,3.204c-15.991,6.67 -30.594,15.345 -43.895,26.076c-11.675,9.419 -21.453,19.48 -30.801,31.692c-1.195,1.562 -2.424,3.236 -3.24,4.415c-0.134,0.194 -0.574,0.812 -0.977,1.372c-4.771,6.63 -11.123,17.635 -15.32,26.544c-1.621,3.438 -1.84,3.943 -3.68,8.469c-2.298,5.655 -5.455,14.595 -5.423,15.362c0.004,0.106 0.417,0.45 0.919,0.763c4.479,2.803 12.143,9.385 17.666,15.173c3.72,3.898 4.372,4.617 4.372,4.815c0,0.539 -9.088,0.833 -12.216,0.396c-4.753,-0.664 -8.405,-1.727 -13.491,-3.929c-0.658,-0.285 -1.284,-0.483 -1.393,-0.441c-0.109,0.041 -0.329,0.798 -0.49,1.681c-0.683,3.747 -1.269,7.221 -1.398,8.284c-0.076,0.627 -0.326,2.679 -0.555,4.56c-1.649,13.56 -1.649,28.951 0,42.511c0.229,1.881 0.478,3.933 0.553,4.56c0.229,1.922 1.259,7.713 1.961,11.027c2.653,12.535 5.865,22.641 11.197,35.23c2.558,6.04 7.829,16.091 11.831,22.558c1.483,2.398 4.391,6.819 5.495,8.357c3.034,4.224 4.649,6.373 7.029,9.359c13.458,16.88 30.353,31.622 48.728,42.521c4.607,2.733 13.17,7.255 16.695,8.817c5.646,2.502 9.929,4.255 13.681,5.601c1.12,0.402 2.549,0.917 3.176,1.145c3.717,1.352 13.203,4.072 17.672,5.067c10.722,2.387 20.444,3.784 30.051,4.316c1.702,0.094 3.497,0.197 3.99,0.229c1.88,0.12 15.67,-0.045 18.079,-0.216Zm-104.803,-115.043c-0.245,-0.56 -0.8,-1.787 -1.234,-2.728c-0.434,-0.941 -1.775,-3.909 -2.98,-6.597c-1.205,-2.687 -2.96,-6.572 -3.901,-8.632c-0.94,-2.06 -1.904,-4.21 -2.142,-4.777c-0.238,-0.566 -0.713,-1.629 -1.055,-2.361c-0.342,-0.732 -1.282,-2.797 -2.089,-4.589c-0.808,-1.792 -1.851,-4.1 -2.318,-5.131c-2.412,-5.314 -3.428,-7.718 -3.311,-7.831c0.185,-0.18 6.949,-1.132 7.075,-0.996c0.095,0.103 0.615,1.579 3.08,8.746c0.432,1.254 1.157,3.343 1.613,4.642c0.455,1.299 1.371,3.938 2.035,5.864c0.663,1.926 2.062,5.957 3.108,8.958c1.047,3.001 2.516,7.237 3.265,9.413c0.749,2.177 1.402,4.023 1.451,4.103c0.125,0.202 -1.681,2.934 -1.941,2.934c-0.116,0 -0.412,-0.458 -0.656,-1.018Zm-18.623,-47.152c0.032,-0.067 0.197,-0.452 0.365,-0.855c0.169,-0.404 1.018,-2.126 1.887,-3.828c1.648,-3.226 2.214,-4.308 4.523,-8.632c3.532,-6.618 7.383,-14.627 9.397,-19.545c0.477,-1.165 1.063,-2.594 1.302,-3.176c0.811,-1.973 3.801,-7.947 5.314,-10.618c4.963,-8.761 10.59,-15.512 17.247,-20.691c6.669,-5.189 14.487,-8.799 22.639,-10.454c4.278,-0.869 6.883,-1.117 11.808,-1.124c5.957,-0.009 10.444,0.455 16.369,1.693c20.098,4.198 40.733,15.675 62.449,34.735c1.64,1.44 1.908,1.735 1.573,1.735c-0.098,0 -1.368,-0.434 -2.823,-0.966c-5.277,-1.926 -8.566,-3.092 -11.441,-4.056c-3.902,-1.308 -7.541,-2.487 -8.143,-2.637c-0.269,-0.068 -1.847,-0.527 -3.507,-1.021c-3.989,-1.189 -9.785,-2.726 -12.455,-3.304c-9.902,-2.143 -15.259,-3.017 -22.803,-3.722c-9.873,-0.923 -21.026,-0.645 -29.16,0.727c-5.422,0.914 -12.474,3.655 -17.688,6.876c-4.784,2.955 -9.594,7.381 -12.789,11.768c-0.848,1.164 -3.34,4.917 -3.461,5.212c-0.061,0.148 -1.58,2.389 -2.611,3.85c-0.641,0.909 -4.132,5.452 -5.202,6.771c-4.383,5.4 -11.632,12.602 -17.693,17.577c-3.707,3.044 -5.374,4.249 -5.097,3.685Zm-2.943,-0.978c-0.083,-0.156 -0.716,-1.567 -1.406,-3.135c-3.4,-7.73 -8.192,-16.555 -12.514,-23.047c-2.103,-3.159 -2.692,-3.968 -5.272,-7.248c-3.199,-4.067 -7.97,-9.071 -11.332,-11.885c-1.843,-1.542 -1.728,-1.652 0.663,-0.637c9.396,3.99 16.634,10.088 22.917,19.307c1.867,2.741 4.336,7.032 5.655,9.829c0.233,0.492 0.796,1.687 1.252,2.655c0.456,0.967 0.829,1.798 0.829,1.846c0,0.048 0.265,0.686 0.588,1.417c0.324,0.731 0.807,1.916 1.075,2.633c1.066,2.855 1.14,2.107 -0.551,5.533c-0.819,1.66 -1.548,3.017 -1.62,3.017c-0.073,0 -0.2,-0.128 -0.284,-0.285Zm-34.47,-16.597c-4.68,-0.216 -10.053,-0.876 -12.985,-1.597c-3.484,-0.855 -6.526,-2.353 -9.295,-4.577c-1.556,-1.249 -3.653,-3.392 -4.486,-4.584l-0.364,-0.522l0.393,-0.258c0.523,-0.343 3.124,-1.399 4.926,-2.001c4.428,-1.478 7.326,-1.999 11.729,-2.111c4.739,-0.12 8.389,0.387 12.692,1.763c4.624,1.478 10.216,4.347 14.492,7.436c3.989,2.881 6.528,4.969 6.364,5.234c-0.153,0.248 -0.708,0.319 -5.224,0.667c-7.446,0.574 -13.658,0.761 -18.242,0.55Zm14.615,-25.994c-0.226,-0.279 -5.939,-11.737 -7.208,-14.456c-3.784,-8.109 -5.979,-14.403 -7,-20.073c-0.499,-2.769 -0.701,-6.721 -0.484,-9.468c0.264,-3.352 1.077,-7.928 1.43,-8.045c0.256,-0.086 6.38,6.053 7.357,7.373c0.397,0.538 1.024,1.344 1.393,1.792c2.842,3.452 5.751,8.823 7.189,13.274c1.273,3.939 1.741,6.954 1.744,11.238c0.004,6.226 -1.195,11.784 -3.872,17.957c-0.296,0.681 -0.316,0.696 -0.549,0.408Z" style="fill:#fff;fill-rule:nonzero;"/></svg>